# Blender v2.77 (sub 0) OBJ File: 'scena2.blend'
# www.blender.org
mtllib scena2.mtl
o Plane.002
v 16.107128 8.482196 -5.014576
v 16.107128 -0.690350 -5.014576
v 16.107128 8.482196 -14.187122
v 16.107128 -0.690350 -14.187122
vn 1.0000 0.0000 0.0000
usemtl collision
s off
f 1//1 2//1 4//1 3//1
o Cube
v 16.155329 0.033846 -5.419437
v 16.155329 8.390573 -5.419437
v 16.155329 0.033846 -13.776163
v 16.155329 8.390573 -13.776163
v 24.512056 0.033846 -5.419437
v 24.512056 8.390573 -5.419437
v 24.512056 0.033846 -13.776163
v 24.512056 8.390573 -13.776163
vn -1.0000 0.0000 0.0000
vn 0.0000 0.0000 -1.0000
vn 1.0000 0.0000 0.0000
vn 0.0000 0.0000 1.0000
vn 0.0000 -1.0000 0.0000
vn 0.0000 1.0000 0.0000
usemtl fiolet
s off
f 6//2 8//2 7//2 5//2
f 8//3 12//3 11//3 7//3
f 12//4 10//4 9//4 11//4
f 10//5 6//5 5//5 9//5
f 5//6 7//6 11//6 9//6
f 10//7 12//7 8//7 6//7
o Plane.006
v 53.808472 65.409149 59.092426
v 53.808479 -49.387527 59.092426
v 53.808472 65.409149 -55.704250
v 53.808479 -49.387527 -55.704250
vn 1.0000 0.0000 0.0000
usemtl collision
s off
f 13//8 14//8 16//8 15//8
o Plane.005
v 67.244934 66.850677 -55.211212
v 67.244942 -59.111862 -55.211212
v -58.717606 66.850670 -55.211220
v -58.717598 -59.111870 -55.211220
vn 0.0000 0.0000 -1.0000
usemtl collision
s off
f 17//9 18//9 20//9 19//9
o Plane.004
v -54.285961 67.469505 58.668736
v -54.285954 -52.805153 58.668736
v -54.285961 67.469505 -61.605923
v -54.285954 -52.805153 -61.605923
vn 1.0000 0.0000 0.0000
usemtl collision
s off
f 21//10 22//10 24//10 23//10
o Plane.003
v -61.154564 -60.795895 56.593510
v -61.154572 63.512722 56.593510
v 63.154053 -60.795887 56.593517
v 63.154045 63.512730 56.593517
vn 0.0000 0.0000 -1.0000
usemtl collision
s off
f 25//11 26//11 28//11 27//11
o Plane.001
v -56.724358 0.004057 58.642597
v 58.735977 0.004057 58.642597
v -56.724358 0.004057 -56.817738
v 58.735977 0.004057 -56.817738
vn 0.0000 1.0000 0.0000
usemtl collision
s off
f 29//12 30//12 32//12 31//12
o Plane
v -56.566639 -1.646552 58.192017
v 58.566639 -1.646552 58.192017
v -56.566639 -1.646552 -56.941261
v 58.566639 -1.646552 -56.941261
vn 0.0000 1.0000 0.0000
usemtl Material.001
s off
f 33//13 34//13 36//13 35//13
