# Blender v2.77 (sub 0) OBJ File: 'testowa_scena.blend'
# www.blender.org
mtllib testowa_scena.mtl
o Plane.009
v 7.250820 -7.432165 -8.032106
v 7.250819 8.122740 -8.032106
v 7.250820 -7.432165 7.522798
v 7.250819 8.122740 7.522798
vn 1.0000 0.0000 0.0000
usemtl collision
s off
f 1//1 2//1 4//1 3//1
o Plane.008
v 7.343809 8.119797 6.889216
v 7.343810 -6.167945 6.889216
v 7.343809 8.119797 -7.398525
v 7.343810 -6.167945 -7.398525
vn 1.0000 0.0000 0.0000
usemtl None
s off
f 5//2 6//2 8//2 7//2
o Plane.007
v 7.825571 8.192247 -7.146712
v 7.825572 -7.501671 -7.146712
v -7.868348 8.192246 -7.146713
v -7.868347 -7.501672 -7.146713
vn 0.0000 0.0000 -1.0000
usemtl collision
s off
f 9//3 10//3 12//3 11//3
o Plane.006
v -7.372530 8.202799 -7.250199
v -7.372530 -6.499485 -7.250199
v 7.329753 8.202800 -7.250199
v 7.329754 -6.499484 -7.250199
vn 0.0000 0.0000 1.0000
usemtl None
s off
f 13//4 14//4 16//4 15//4
o Plane.005
v 8.097865 8.464542 7.284917
v 8.097867 -7.773965 7.284917
v -8.140643 8.464540 7.284916
v -8.140641 -7.773967 7.284916
vn 0.0000 0.0000 -1.0000
usemtl collision
s off
f 17//5 18//5 20//5 19//5
o Plane.004
v 7.820093 8.186769 7.353105
v 7.820094 -7.496193 7.353105
v -7.862870 8.186769 7.353104
v -7.862869 -7.496194 7.353104
vn 0.0000 0.0000 -1.0000
usemtl None
s off
f 21//6 22//6 24//6 23//6
o Plane.003
v -7.188817 -11.073248 -10.174797
v -7.188819 8.236795 -10.174797
v -7.188817 -11.073248 9.135246
v -7.188819 8.236795 9.135246
vn 1.0000 0.0000 0.0000
usemtl collision
s off
f 25//7 26//7 28//7 27//7
o Plane.002
v -7.222258 8.918952 7.596039
v -7.222257 -6.470282 7.596039
v -7.222258 8.918952 -7.793195
v -7.222257 -6.470282 -7.793195
vn 1.0000 0.0000 0.0000
usemtl None
s off
f 29//8 30//8 32//8 31//8
o Plane.001
v -7.240572 0.345213 7.240572
v 7.240572 0.345213 7.240572
v -7.240572 0.345213 -7.240572
v 7.240572 0.345213 -7.240572
vn 0.0000 1.0000 0.0000
usemtl collision
s off
f 33//9 34//9 36//9 35//9
o Plane
v -7.174353 0.299469 7.174353
v 7.174353 0.299469 7.174353
v -7.174353 0.299469 -7.174353
v 7.174353 0.299469 -7.174353
vn 0.0000 1.0000 0.0000
usemtl normal
s off
f 37//10 38//10 40//10 39//10
