# Blender v2.77 (sub 0) OBJ File: 'scena3.blend'
# www.blender.org
mtllib scena3.mtl
o Cube.001_Cube.003
v -2.301219 -1.254137 -8.215336
v -2.301219 0.957532 -8.215336
v -2.301219 -1.254137 -10.427006
v -2.301219 0.957532 -10.427006
v -0.089550 -1.254137 -8.215336
v -0.089550 0.957532 -8.215336
v -0.089550 -1.254137 -10.427006
v -0.089550 0.957532 -10.427006
vn -1.0000 0.0000 0.0000
vn 0.0000 0.0000 -1.0000
vn 1.0000 0.0000 0.0000
vn 0.0000 0.0000 1.0000
vn 0.0000 -1.0000 0.0000
vn 0.0000 1.0000 0.0000
usemtl collision
s off
f 2//1 4//1 3//1 1//1
f 4//2 8//2 7//2 3//2
f 8//3 6//3 5//3 7//3
f 6//4 2//4 1//4 5//4
f 1//5 3//5 7//5 5//5
f 6//6 8//6 4//6 2//6
o Plane.003
v 16.368633 16.324444 -15.615962
v 16.368637 -16.974663 -15.615962
v -16.930473 16.324440 -15.615964
v -16.930470 -16.974667 -15.615964
vn 0.0000 0.0000 -1.0000
usemtl collision
s off
f 9//7 10//7 12//7 11//7
o Cube_Cube.001
v -2.230394 -1.155978 -8.423101
v -2.230394 0.844022 -8.423101
v -2.230394 -1.155978 -10.423101
v -2.230394 0.844022 -10.423101
v -0.230394 -1.155978 -8.423101
v -0.230394 0.844022 -8.423101
v -0.230394 -1.155978 -10.423101
v -0.230394 0.844022 -10.423101
vn -1.0000 0.0000 0.0000
vn 0.0000 0.0000 -1.0000
vn 1.0000 0.0000 0.0000
vn 0.0000 0.0000 1.0000
vn 0.0000 -1.0000 0.0000
vn 0.0000 1.0000 0.0000
usemtl Material.001
s off
f 14//8 16//8 15//8 13//8
f 16//9 20//9 19//9 15//9
f 20//10 18//10 17//10 19//10
f 18//11 14//11 13//11 17//11
f 13//12 15//12 19//12 17//12
f 18//13 20//13 16//13 14//13
o Plane.001
v -15.872082 -1.162606 15.872082
v 15.872082 -1.162606 15.872082
v -15.872082 -1.162606 -15.872082
v 15.872082 -1.162606 -15.872082
vn 0.0000 1.0000 0.0000
usemtl collision
s off
f 21//14 22//14 24//14 23//14
o Plane
v 15.833280 -1.289742 -15.833280
v -15.833280 -1.289742 -15.833280
v 15.833280 -1.289742 15.833280
v -15.833280 -1.289742 15.833280
vn 0.0000 1.0000 0.0000
usemtl None
s off
f 25//15 26//15 28//15 27//15
