# Blender v2.77 (sub 0) OBJ File: 'weapon_1.blend'
# www.blender.org
mtllib weapon_1_000034.mtl
o Cube
v 1.780023 -0.555089 -0.189563
v 1.779918 -0.622950 0.032379
v -1.792858 -0.600748 0.037486
v -1.792753 -0.532886 -0.184456
v 1.787712 0.600748 0.163851
v 1.787605 0.532886 0.385793
v -1.785170 0.555089 0.390900
v -1.785065 0.622950 0.168957
vn -0.0064 -0.9563 -0.2924
vn 0.0064 0.9563 0.2924
vn 1.0000 -0.0062 -0.0014
vn -0.0005 -0.2924 0.9563
vn -1.0000 0.0062 0.0014
vn 0.0005 0.2924 -0.9563
usemtl Material
s off
f 1//1 2//1 3//1 4//1
f 5//2 8//2 7//2 6//2
f 1//3 5//3 6//3 2//3
f 2//4 6//4 7//4 3//4
f 3//5 7//5 8//5 4//5
f 5//6 1//6 4//6 8//6
