# Blender v2.77 (sub 0) OBJ File: 'weapon_1.blend'
# www.blender.org
mtllib weapon_1_000025.mtl
o Cube
v 1.779475 0.028799 -0.115864
v 1.779691 -0.200928 -0.082864
v -1.793069 -0.200664 -0.057678
v -1.793284 0.029063 -0.090678
v 1.787923 0.200664 1.080510
v 1.788136 -0.029063 1.113510
v -1.784623 -0.028799 1.138695
v -1.784838 0.200928 1.105695
vn -0.0070 -0.1422 -0.9898
vn 0.0070 0.1422 0.9898
vn 1.0000 -0.0001 -0.0070
vn 0.0009 -0.9898 0.1422
vn -1.0000 0.0001 0.0070
vn -0.0009 0.9898 -0.1422
usemtl Material
s off
f 1//1 2//1 3//1 4//1
f 5//2 8//2 7//2 6//2
f 1//3 5//3 6//3 2//3
f 2//4 6//4 7//4 3//4
f 3//5 7//5 8//5 4//5
f 5//6 1//6 4//6 8//6
