# Blender v2.77 (sub 0) OBJ File: 'weapon_1.blend'
# www.blender.org
mtllib weapon_1_000023.mtl
o Cube
v 1.780766 -0.209232 -0.217280
v 1.781274 -0.408873 -0.098930
v -1.791528 -0.407132 -0.080665
v -1.792035 -0.207491 -0.199015
v 1.786382 0.407132 0.822423
v 1.786888 0.207491 0.940773
v -1.785913 0.209232 0.959038
v -1.786420 0.408873 0.840688
vn -0.0046 -0.5099 -0.8602
vn 0.0046 0.5099 0.8602
vn 1.0000 -0.0005 -0.0051
vn 0.0022 -0.8602 0.5099
vn -1.0000 0.0005 0.0051
vn -0.0022 0.8602 -0.5099
usemtl Material
s off
f 1//1 2//1 3//1 4//1
f 5//2 8//2 7//2 6//2
f 1//3 5//3 6//3 2//3
f 2//4 6//4 7//4 3//4
f 3//5 7//5 8//5 4//5
f 5//6 1//6 4//6 8//6
