# Blender v2.77 (sub 0) OBJ File: 'weapon_1.blend'
# www.blender.org
mtllib weapon_1_000018.mtl
o Cube
v 1.780279 -0.610410 -0.124831
v 1.780272 -0.618473 0.107115
v -1.792516 -0.597524 0.107727
v -1.792508 -0.589462 -0.124218
v 1.787370 0.597524 -0.082840
v 1.787360 0.589462 0.149105
v -1.785426 0.610410 0.149718
v -1.785418 0.618473 -0.082227
vn -0.0059 -0.9994 -0.0347
vn 0.0059 0.9994 0.0347
vn 1.0000 -0.0059 -0.0002
vn -0.0000 -0.0347 0.9994
vn -1.0000 0.0059 0.0002
vn 0.0000 0.0347 -0.9994
usemtl Material
s off
f 1//1 2//1 3//1 4//1
f 5//2 8//2 7//2 6//2
f 1//3 5//3 6//3 2//3
f 2//4 6//4 7//4 3//4
f 3//5 7//5 8//5 4//5
f 5//6 1//6 4//6 8//6
