# Blender v2.77 (sub 0) OBJ File: 'weapon_1.blend'
# www.blender.org
mtllib weapon_1_000032.mtl
o Cube
v 1.780539 -0.357055 -0.238513
v 1.780539 -0.519590 -0.072845
v -1.792257 -0.505723 -0.059241
v -1.792257 -0.343189 -0.224909
v 1.787111 0.505723 0.607944
v 1.787109 0.343189 0.773613
v -1.785686 0.357055 0.787217
v -1.785686 0.519590 0.621548
vn -0.0054 -0.7138 -0.7003
vn 0.0054 0.7138 0.7003
vn 1.0000 -0.0039 -0.0038
vn -0.0000 -0.7003 0.7138
vn -1.0000 0.0039 0.0038
vn 0.0000 0.7003 -0.7138
usemtl Material
s off
f 1//1 2//1 3//1 4//1
f 5//2 8//2 7//2 6//2
f 1//3 5//3 6//3 2//3
f 2//4 6//4 7//4 3//4
f 3//5 7//5 8//5 4//5
f 5//6 1//6 4//6 8//6
