# Blender v2.77 (sub 0) OBJ File: 'weapon_1.blend'
# www.blender.org
mtllib weapon_1_000019.mtl
o Cube
v 1.781240 -0.589903 -0.150181
v 1.781263 -0.622134 0.079655
v -1.791554 -0.607059 0.082112
v -1.791575 -0.574827 -0.147724
v 1.786407 0.607059 0.017676
v 1.786427 0.574827 0.247512
v -1.786388 0.589903 0.249969
v -1.786409 0.622134 0.020133
vn -0.0043 -0.9903 -0.1389
vn 0.0043 0.9903 0.1389
vn 1.0000 -0.0042 -0.0007
vn 0.0001 -0.1389 0.9903
vn -1.0000 0.0042 0.0007
vn -0.0001 0.1389 -0.9903
usemtl Material
s off
f 1//1 2//1 3//1 4//1
f 5//2 8//2 7//2 6//2
f 1//3 5//3 6//3 2//3
f 2//4 6//4 7//4 3//4
f 3//5 7//5 8//5 4//5
f 5//6 1//6 4//6 8//6
