# Blender v2.77 (sub 0) OBJ File: 'weapon_1.blend'
# www.blender.org
mtllib weapon_1_000027.mtl
o Cube
v 1.779122 0.113973 -0.057221
v 1.779122 -0.118111 -0.056444
v -1.793620 -0.118018 -0.028801
v -1.793620 0.114066 -0.029578
v 1.788474 0.118018 1.151421
v 1.788472 -0.114066 1.152198
v -1.784269 -0.113973 1.179841
v -1.784269 0.118111 1.179064
vn -0.0077 -0.0033 -1.0000
vn 0.0077 0.0033 1.0000
vn 1.0000 -0.0000 -0.0077
vn -0.0000 -1.0000 0.0033
vn -1.0000 0.0000 0.0077
vn 0.0000 1.0000 -0.0033
usemtl Material
s off
f 1//1 2//1 3//1 4//1
f 5//2 8//2 7//2 6//2
f 1//3 5//3 6//3 2//3
f 2//4 6//4 7//4 3//4
f 3//5 7//5 8//5 4//5
f 5//6 1//6 4//6 8//6
