# Blender v2.77 (sub 0) OBJ File: 'weapon_1.blend'
# www.blender.org
mtllib weapon_1_000003.mtl
o Cube
v 1.822531 -0.685631 -0.116043
v 1.822531 -0.685631 0.116043
v -1.746559 -0.521782 0.116043
v -1.746558 -0.521782 -0.116043
v 1.877962 0.521782 -0.116043
v 1.877960 0.521782 0.116043
v -1.691130 0.685631 0.116043
v -1.691129 0.685631 -0.116043
vn -0.0459 -0.9989 0.0000
vn 0.0459 0.9989 -0.0000
vn 0.9989 -0.0459 0.0000
vn -0.0000 -0.0000 1.0000
vn -0.9989 0.0459 -0.0000
vn 0.0000 0.0000 -1.0000
usemtl Material
s off
f 1//1 2//1 3//1 4//1
f 5//2 8//2 7//2 6//2
f 1//3 5//3 6//3 2//3
f 2//4 6//4 7//4 3//4
f 3//5 7//5 8//5 4//5
f 5//6 1//6 4//6 8//6
