# Blender v2.77 (sub 0) OBJ File: 'weapon_1.blend'
# www.blender.org
mtllib weapon_1_000029.mtl
o Cube
v 1.779499 0.026800 -0.117006
v 1.779571 -0.202880 -0.083683
v -1.793189 -0.200339 -0.058536
v -1.793260 0.029342 -0.091858
v 1.788043 0.200339 1.079126
v 1.788112 -0.029342 1.112448
v -1.784647 -0.026800 1.137596
v -1.784717 0.202880 1.104273
vn -0.0071 -0.1436 -0.9896
vn 0.0071 0.1436 0.9896
vn 1.0000 -0.0007 -0.0070
vn 0.0003 -0.9896 0.1436
vn -1.0000 0.0007 0.0070
vn -0.0003 0.9896 -0.1436
usemtl Material
s off
f 1//1 2//1 3//1 4//1
f 5//2 8//2 7//2 6//2
f 1//3 5//3 6//3 2//3
f 2//4 6//4 7//4 3//4
f 3//5 7//5 8//5 4//5
f 5//6 1//6 4//6 8//6
