# Blender v2.77 (sub 0) OBJ File: 'weapon_1.blend'
# www.blender.org
mtllib weapon_1_000024.mtl
o Cube
v 1.780008 -0.075873 -0.171291
v 1.780407 -0.296702 -0.099892
v -1.792374 -0.295972 -0.077705
v -1.792771 -0.075143 -0.149104
v 1.787227 0.295972 0.978752
v 1.787623 0.075143 1.050150
v -1.785156 0.075873 1.072337
v -1.785553 0.296702 1.000939
vn -0.0060 -0.3076 -0.9515
vn 0.0060 0.3076 0.9515
vn 1.0000 -0.0002 -0.0062
vn 0.0017 -0.9515 0.3076
vn -1.0000 0.0002 0.0062
vn -0.0017 0.9515 -0.3076
usemtl Material
s off
f 1//1 2//1 3//1 4//1
f 5//2 8//2 7//2 6//2
f 1//3 5//3 6//3 2//3
f 2//4 6//4 7//4 3//4
f 3//5 7//5 8//5 4//5
f 5//6 1//6 4//6 8//6
