# Blender v2.77 (sub 0) OBJ File: 'weapon_1.blend'
# www.blender.org
mtllib weapon_1_000030.mtl
o Cube
v 1.779918 -0.080169 -0.173498
v 1.780023 -0.300775 -0.101412
v -1.792754 -0.295246 -0.079311
v -1.792857 -0.074639 -0.151397
v 1.787607 0.295246 0.975381
v 1.787710 0.074639 1.047467
v -1.785066 0.080169 1.069568
v -1.785170 0.300775 0.997482
vn -0.0064 -0.3106 -0.9505
vn 0.0064 0.3106 0.9505
vn 1.0000 -0.0016 -0.0062
vn 0.0005 -0.9505 0.3106
vn -1.0000 0.0016 0.0062
vn -0.0005 0.9505 -0.3106
usemtl Material
s off
f 1//1 2//1 3//1 4//1
f 5//2 8//2 7//2 6//2
f 1//3 5//3 6//3 2//3
f 2//4 6//4 7//4 3//4
f 3//5 7//5 8//5 4//5
f 5//6 1//6 4//6 8//6
