# Blender v2.77 (sub 0) OBJ File: 'weapon_1.blend'
# www.blender.org
mtllib weapon_1_000031.mtl
o Cube
v 1.780333 -0.216168 -0.220360
v 1.780412 -0.415174 -0.100944
v -1.792378 -0.405736 -0.082827
v -1.792457 -0.206730 -0.202243
v 1.787232 0.405736 0.816031
v 1.787310 0.206730 0.935447
v -1.785480 0.216168 0.953565
v -1.785559 0.415174 0.834148
vn -0.0057 -0.5145 -0.8575
vn 0.0057 0.5145 0.8575
vn 1.0000 -0.0026 -0.0051
vn 0.0003 -0.8575 0.5145
vn -1.0000 0.0026 0.0051
vn -0.0003 0.8575 -0.5145
usemtl Material
s off
f 1//1 2//1 3//1 4//1
f 5//2 8//2 7//2 6//2
f 1//3 5//3 6//3 2//3
f 2//4 6//4 7//4 3//4
f 3//5 7//5 8//5 4//5
f 5//6 1//6 4//6 8//6
