# Blender v2.77 (sub 0) OBJ File: 'weapon_1.blend'
# www.blender.org
mtllib weapon_1_000028.mtl
o Cube
v 1.779217 0.092377 -0.073263
v 1.779239 -0.139536 -0.064342
v -1.793508 -0.138833 -0.037322
v -1.793529 0.093081 -0.046242
v 1.788361 0.138833 1.134495
v 1.788381 -0.093081 1.143415
v -1.784365 -0.092377 1.170436
v -1.784386 0.139536 1.161515
vn -0.0076 -0.0384 -0.9992
vn 0.0076 0.0384 0.9992
vn 1.0000 -0.0002 -0.0076
vn 0.0001 -0.9993 0.0384
vn -1.0000 0.0002 0.0076
vn -0.0001 0.9993 -0.0384
usemtl Material
s off
f 1//1 2//1 3//1 4//1
f 5//2 8//2 7//2 6//2
f 1//3 5//3 6//3 2//3
f 2//4 6//4 7//4 3//4
f 3//5 7//5 8//5 4//5
f 5//6 1//6 4//6 8//6
