# Blender v2.77 (sub 0) OBJ File: 'weapon_1.blend'
# www.blender.org
mtllib weapon_1_000014.mtl
o Cube
v 1.852172 -0.793558 -0.116043
v 1.852172 -0.793558 0.116043
v -1.699820 -0.408071 0.116043
v -1.699819 -0.408072 -0.116043
v 1.982582 0.408071 -0.116043
v 1.982580 0.408072 0.116043
v -1.569412 0.793558 0.116043
v -1.569411 0.793558 -0.116043
vn -0.1079 -0.9942 0.0000
vn 0.1079 0.9942 0.0000
vn 0.9942 -0.1079 0.0000
vn -0.0000 -0.0000 1.0000
vn -0.9942 0.1079 -0.0000
vn 0.0000 0.0000 -1.0000
usemtl Material
s off
f 1//1 2//1 3//1 4//1
f 5//2 8//2 7//2 6//2
f 1//3 5//3 6//3 2//3
f 2//4 6//4 7//4 3//4
f 3//5 7//5 8//5 4//5
f 5//6 1//6 4//6 8//6
